<svg xmlns="http://www.w3.org/2000/svg" xmlns:xlink="http://www.w3.org/1999/xlink" width="40" zoomAndPan="magnify" viewBox="0 0 375 374.999991" height="40" preserveAspectRatio="xMidYMid meet" version="1.0"><defs><clipPath id="57fca83f56"><path d="M 44 0 L 331.59375 0 L 331.59375 375 L 44 375 Z M 44 0 " clip-rule="nonzero"/></clipPath><clipPath id="dbd7ed3c62"><path d="M 66.007812 65.925781 L 309.007812 65.925781 L 309.007812 215.175781 L 66.007812 215.175781 Z M 66.007812 65.925781 " clip-rule="nonzero"/></clipPath></defs><g clip-path="url(#57fca83f56)"><path fill="#397fbf" d="M 331.089844 143.570312 C 331.089844 222.78125 187.558594 375.277344 187.558594 375.277344 C 187.558594 375.277344 44.027344 222.78125 44.027344 143.570312 C 44.027344 64.351562 108.289062 0.136719 187.554688 0.136719 C 266.824219 0.136719 331.089844 64.351562 331.089844 143.570312 Z M 331.089844 143.570312 " fill-opacity="1" fill-rule="nonzero"/></g><g clip-path="url(#dbd7ed3c62)"><path fill="#ffffff" d="M 188.21875 199.0625 L 121.171875 172.695312 L 133.066406 134.914062 L 189.398438 153.707031 L 245.726562 134.914062 L 257.621094 172.695312 L 189.398438 199.453125 Z M 128.9375 168.957031 L 189.398438 192.664062 L 249.757812 168.957031 L 241.597656 142.984375 L 189.398438 160.398438 L 137.195312 142.984375 Z M 106.230469 142.195312 C 105.640625 142.195312 105.046875 142.390625 104.558594 142.886719 C 104.164062 143.277344 103.871094 143.871094 103.871094 144.457031 C 103.871094 145.148438 104.164062 145.738281 104.558594 146.132812 C 105.046875 146.625 105.640625 146.820312 106.230469 146.820312 C 106.917969 146.820312 107.507812 146.625 107.898438 146.132812 C 108.292969 145.738281 108.589844 145.148438 108.589844 144.457031 C 108.589844 143.871094 108.292969 143.277344 107.898438 142.886719 C 107.507812 142.390625 106.917969 142.195312 106.230469 142.195312 Z M 104.164062 208.800781 L 108.390625 208.800781 L 106.523438 179.582031 Z M 106.230469 215.195312 L 97.28125 215.195312 L 102.394531 152.332031 C 101.511719 151.835938 100.726562 151.34375 100.035156 150.65625 C 98.460938 149.082031 97.578125 146.917969 97.578125 144.457031 C 97.578125 142.097656 98.460938 139.933594 100.035156 138.359375 C 101.019531 137.472656 102.101562 136.785156 103.28125 136.292969 L 103.082031 120.15625 L 66.023438 107.46875 C 106.523438 93.695312 147.027344 79.820312 187.53125 65.949219 C 228.03125 79.820312 268.535156 93.695312 309.039062 107.46875 L 187.53125 148.984375 L 186.546875 148.6875 L 109.472656 122.320312 L 109.671875 136.488281 C 110.652344 136.882812 111.636719 137.570312 112.421875 138.359375 C 113.996094 139.933594 114.980469 142.097656 114.980469 144.457031 C 114.980469 146.917969 113.996094 149.082031 112.421875 150.65625 C 112.027344 151.050781 111.636719 151.34375 111.144531 151.640625 L 115.175781 215.195312 Z M 85.683594 107.46875 L 108.785156 115.4375 L 174.945312 93.203125 C 176.617188 92.613281 178.484375 93.496094 178.976562 95.167969 C 179.566406 96.839844 178.679688 98.613281 177.007812 99.203125 L 118.714844 118.78125 L 187.53125 142.292969 L 289.375 107.46875 L 187.53125 72.640625 L 85.683594 107.46875 " fill-opacity="1" fill-rule="nonzero"/></g></svg>