<svg xmlns="http://www.w3.org/2000/svg" xmlns:xlink="http://www.w3.org/1999/xlink" width="40" zoomAndPan="magnify" viewBox="0 0 375 374.999991" height="40" preserveAspectRatio="xMidYMid meet" version="1.0"><defs><clipPath id="0fdfd1126a"><path d="M 44 0 L 331.59375 0 L 331.59375 375 L 44 375 Z M 44 0 " clip-rule="nonzero"/></clipPath><clipPath id="638861d5d7"><path d="M 80.972656 44.21875 L 295.472656 44.21875 L 295.472656 238.46875 L 80.972656 238.46875 Z M 80.972656 44.21875 " clip-rule="nonzero"/></clipPath></defs><g clip-path="url(#0fdfd1126a)"><path fill="#397fbf" d="M 331.089844 143.570312 C 331.089844 222.78125 187.558594 375.277344 187.558594 375.277344 C 187.558594 375.277344 44.027344 222.78125 44.027344 143.570312 C 44.027344 64.351562 108.289062 0.136719 187.554688 0.136719 C 266.824219 0.136719 331.089844 64.351562 331.089844 143.570312 Z M 331.089844 143.570312 " fill-opacity="1" fill-rule="nonzero"/></g><path fill="#ffffff" d="M 203.035156 214.332031 L 196.734375 214.332031 C 195.792969 214.332031 195.03125 215.09375 195.03125 216.035156 C 195.03125 216.976562 195.792969 217.738281 196.734375 217.738281 L 203.035156 217.738281 C 203.976562 217.738281 204.738281 216.976562 204.738281 216.035156 C 204.738281 215.09375 203.976562 214.332031 203.035156 214.332031 Z M 203.035156 214.332031 " fill-opacity="1" fill-rule="nonzero"/><path fill="#ffffff" d="M 241.785156 103.089844 L 194.523438 103.089844 C 193.582031 103.089844 192.820312 103.851562 192.820312 104.792969 L 192.820312 158.824219 C 192.820312 159.765625 193.582031 160.527344 194.523438 160.527344 L 241.785156 160.527344 C 242.726562 160.527344 243.488281 159.765625 243.488281 158.824219 L 243.488281 104.792969 C 243.488281 103.851562 242.726562 103.089844 241.785156 103.089844 Z M 240.082031 130.105469 L 219.855469 130.105469 L 219.855469 106.496094 L 240.082031 106.496094 Z M 216.453125 106.496094 L 216.453125 130.105469 L 196.226562 130.105469 L 196.226562 106.496094 Z M 196.226562 133.511719 L 216.453125 133.511719 L 216.453125 157.121094 L 196.226562 157.121094 Z M 219.855469 157.121094 L 219.855469 133.511719 L 240.082031 133.511719 L 240.082031 157.121094 Z M 219.855469 157.121094 " fill-opacity="1" fill-rule="nonzero"/><g clip-path="url(#638861d5d7)"><path fill="#ffffff" d="M 295.472656 111.148438 C 295.472656 107.476562 293.027344 104.191406 289.523438 103.160156 C 289.367188 103.113281 289.207031 103.089844 289.042969 103.089844 L 251.363281 103.089844 L 251.363281 80.601562 C 255.078125 79.160156 257.664062 75.507812 257.664062 71.417969 C 257.664062 66.855469 254.457031 62.816406 250.039062 61.8125 C 249.914062 61.785156 249.789062 61.769531 249.660156 61.769531 L 213.339844 61.769531 C 209.46875 51.566406 199.683594 44.289062 188.222656 44.289062 C 176.761719 44.289062 166.976562 51.566406 163.105469 61.773438 L 126.785156 61.773438 C 126.65625 61.773438 126.53125 61.785156 126.40625 61.816406 C 121.984375 62.816406 118.78125 66.855469 118.78125 71.421875 C 118.78125 75.511719 121.363281 79.160156 125.082031 80.601562 L 125.082031 103.089844 L 87.402344 103.089844 C 87.238281 103.089844 87.078125 103.117188 86.921875 103.160156 C 83.417969 104.191406 80.972656 107.472656 80.972656 111.148438 C 80.972656 114.378906 82.863281 117.304688 85.699219 118.667969 L 85.699219 223.980469 C 85.699219 224.921875 86.460938 225.683594 87.402344 225.683594 L 125.082031 225.683594 L 125.082031 236.695312 C 125.082031 237.636719 125.84375 238.398438 126.785156 238.398438 L 249.660156 238.398438 C 250.601562 238.398438 251.363281 237.636719 251.363281 236.695312 L 251.363281 225.683594 L 289.042969 225.683594 C 289.984375 225.683594 290.746094 224.921875 290.746094 223.980469 L 290.746094 118.667969 C 293.582031 117.304688 295.472656 114.378906 295.472656 111.148438 Z M 249.457031 65.175781 C 252.253906 65.894531 254.257812 68.492188 254.257812 71.421875 C 254.257812 74.351562 252.25 76.945312 249.457031 77.664062 L 214.382812 77.664062 C 214.851562 75.65625 215.128906 73.574219 215.128906 71.421875 C 215.128906 69.269531 214.851562 67.1875 214.382812 65.175781 Z M 188.222656 47.695312 C 201.179688 47.695312 211.726562 58.339844 211.726562 71.417969 C 211.726562 84.5 201.183594 95.144531 188.222656 95.144531 C 175.261719 95.144531 164.71875 84.503906 164.71875 71.417969 C 164.71875 58.339844 175.265625 47.695312 188.222656 47.695312 Z M 122.183594 71.417969 C 122.183594 68.492188 124.195312 65.894531 126.984375 65.175781 L 162.0625 65.175781 C 161.589844 67.183594 161.316406 69.265625 161.316406 71.417969 C 161.316406 73.570312 161.589844 75.652344 162.0625 77.664062 L 126.984375 77.664062 C 124.195312 76.945312 122.183594 74.347656 122.183594 71.417969 Z M 87.667969 106.496094 L 125.082031 106.496094 L 125.082031 115.804688 L 87.667969 115.804688 C 85.71875 115.128906 84.378906 113.246094 84.378906 111.148438 C 84.378906 109.050781 85.71875 107.171875 87.667969 106.496094 Z M 89.101562 222.277344 L 89.101562 119.210938 L 125.082031 119.210938 L 125.082031 222.277344 Z M 189.925781 190.722656 L 210.152344 190.722656 L 210.152344 234.992188 L 189.925781 234.992188 Z M 186.519531 234.992188 L 166.292969 234.992188 L 166.292969 190.722656 L 186.519531 190.722656 Z M 247.957031 234.992188 L 213.554688 234.992188 L 213.554688 189.019531 C 213.554688 188.078125 212.792969 187.316406 211.851562 187.316406 L 164.589844 187.316406 C 163.648438 187.316406 162.890625 188.078125 162.890625 189.019531 L 162.890625 234.992188 L 128.484375 234.992188 L 128.484375 81.070312 L 163.105469 81.070312 C 166.976562 91.269531 176.761719 98.550781 188.222656 98.550781 C 199.683594 98.550781 209.46875 91.269531 213.339844 81.070312 L 247.957031 81.070312 Z M 251.363281 222.277344 L 251.363281 119.210938 L 287.34375 119.210938 L 287.34375 222.277344 Z M 288.777344 115.804688 L 251.363281 115.804688 L 251.363281 106.496094 L 288.78125 106.496094 C 290.726562 107.167969 292.070312 109.050781 292.070312 111.148438 C 292.070312 113.246094 290.726562 115.128906 288.777344 115.804688 Z M 288.777344 115.804688 " fill-opacity="1" fill-rule="nonzero"/></g><path fill="#ffffff" d="M 279.59375 125.339844 L 259.113281 125.339844 C 258.171875 125.339844 257.410156 126.101562 257.410156 127.042969 L 257.410156 203.320312 C 257.410156 204.261719 258.171875 205.023438 259.113281 205.023438 L 279.59375 205.023438 C 280.535156 205.023438 281.296875 204.261719 281.296875 203.320312 L 281.296875 127.042969 C 281.296875 126.101562 280.535156 125.339844 279.59375 125.339844 Z M 260.816406 147.8125 L 277.890625 147.8125 L 277.890625 163.480469 L 260.816406 163.480469 Z M 260.816406 166.882812 L 277.890625 166.882812 L 277.890625 182.550781 L 260.816406 182.550781 Z M 277.890625 128.742188 L 277.890625 144.410156 L 260.816406 144.410156 L 260.816406 128.742188 Z M 260.816406 201.617188 L 260.816406 185.953125 L 277.890625 185.953125 L 277.890625 201.617188 Z M 260.816406 201.617188 " fill-opacity="1" fill-rule="nonzero"/><path fill="#ffffff" d="M 173.410156 217.738281 L 179.710938 217.738281 C 180.652344 217.738281 181.414062 216.976562 181.414062 216.035156 C 181.414062 215.09375 180.652344 214.332031 179.710938 214.332031 L 173.410156 214.332031 C 172.46875 214.332031 171.707031 215.09375 171.707031 216.035156 C 171.707031 216.976562 172.46875 217.738281 173.410156 217.738281 Z M 173.410156 217.738281 " fill-opacity="1" fill-rule="nonzero"/><path fill="#ffffff" d="M 181.921875 103.089844 L 134.660156 103.089844 C 133.71875 103.089844 132.957031 103.851562 132.957031 104.792969 L 132.957031 158.824219 C 132.957031 159.765625 133.71875 160.527344 134.660156 160.527344 L 181.921875 160.527344 C 182.863281 160.527344 183.625 159.765625 183.625 158.824219 L 183.625 104.792969 C 183.625 103.851562 182.863281 103.089844 181.921875 103.089844 Z M 180.21875 130.105469 L 159.992188 130.105469 L 159.992188 106.496094 L 180.21875 106.496094 Z M 156.589844 106.496094 L 156.589844 130.105469 L 136.363281 130.105469 L 136.363281 106.496094 Z M 136.363281 133.511719 L 156.589844 133.511719 L 156.589844 157.121094 L 136.363281 157.121094 Z M 159.992188 157.121094 L 159.992188 133.511719 L 180.21875 133.511719 L 180.21875 157.121094 Z M 159.992188 157.121094 " fill-opacity="1" fill-rule="nonzero"/><path fill="#ffffff" d="M 117.332031 125.339844 L 96.851562 125.339844 C 95.910156 125.339844 95.148438 126.101562 95.148438 127.042969 L 95.148438 203.320312 C 95.148438 204.261719 95.910156 205.023438 96.851562 205.023438 L 117.332031 205.023438 C 118.273438 205.023438 119.035156 204.261719 119.035156 203.320312 L 119.035156 127.042969 C 119.035156 126.101562 118.273438 125.339844 117.332031 125.339844 Z M 98.554688 147.8125 L 115.628906 147.8125 L 115.628906 163.480469 L 98.554688 163.480469 Z M 98.554688 166.882812 L 115.628906 166.882812 L 115.628906 182.550781 L 98.554688 182.550781 Z M 115.628906 128.742188 L 115.628906 144.410156 L 98.554688 144.410156 L 98.554688 128.742188 Z M 98.554688 201.617188 L 98.554688 185.953125 L 115.628906 185.953125 L 115.628906 201.617188 Z M 98.554688 201.617188 " fill-opacity="1" fill-rule="nonzero"/><path fill="#ffffff" d="M 172.535156 78.375 L 181.3125 78.375 L 181.3125 87.246094 C 181.3125 88.183594 182.074219 88.945312 183.015625 88.945312 L 193.496094 88.945312 C 194.4375 88.945312 195.195312 88.183594 195.195312 87.246094 L 195.195312 78.375 L 203.972656 78.375 C 204.914062 78.375 205.675781 77.613281 205.675781 76.671875 L 205.675781 66.101562 C 205.675781 65.160156 204.914062 64.398438 203.972656 64.398438 L 195.195312 64.398438 L 195.195312 55.527344 C 195.195312 54.589844 194.4375 53.824219 193.496094 53.824219 L 183.015625 53.824219 C 182.074219 53.824219 181.3125 54.589844 181.3125 55.527344 L 181.3125 64.398438 L 172.535156 64.398438 C 171.59375 64.398438 170.835938 65.160156 170.835938 66.101562 L 170.835938 76.671875 C 170.835938 77.613281 171.59375 78.375 172.535156 78.375 Z M 174.238281 67.804688 L 183.015625 67.804688 C 183.957031 67.804688 184.71875 67.039062 184.71875 66.101562 L 184.71875 57.230469 L 191.792969 57.230469 L 191.792969 66.101562 C 191.792969 67.039062 192.554688 67.804688 193.496094 67.804688 L 202.273438 67.804688 L 202.273438 74.96875 L 193.496094 74.96875 C 192.554688 74.96875 191.792969 75.734375 191.792969 76.671875 L 191.792969 85.542969 L 184.71875 85.542969 L 184.71875 76.671875 C 184.71875 75.734375 183.957031 74.96875 183.015625 74.96875 L 174.238281 74.96875 Z M 174.238281 67.804688 " fill-opacity="1" fill-rule="nonzero"/></svg>