<svg xmlns="http://www.w3.org/2000/svg" xmlns:xlink="http://www.w3.org/1999/xlink" width="500" zoomAndPan="magnify" viewBox="0 0 375 374.999991" height="500" preserveAspectRatio="xMidYMid meet" version="1.0"><defs><clipPath id="44b6fab5e5"><path d="M 2.488281 2.488281 L 372.238281 2.488281 L 372.238281 372.238281 L 2.488281 372.238281 Z M 2.488281 2.488281 " clip-rule="nonzero"/></clipPath><clipPath id="c5a82de9b0"><path d="M 17.09375 121.59375 L 357.59375 121.59375 L 357.59375 316.59375 L 17.09375 316.59375 Z M 17.09375 121.59375 " clip-rule="nonzero"/></clipPath></defs><g clip-path="url(#44b6fab5e5)"><path fill="#397fbf" d="M 187.363281 372.238281 C 85.226562 372.238281 2.488281 288.933594 2.488281 187.363281 C 2.488281 85.796875 85.226562 2.488281 187.363281 2.488281 C 289.503906 2.488281 372.238281 85.226562 372.238281 187.363281 C 372.238281 289.503906 288.933594 372.238281 187.363281 372.238281 Z M 187.363281 13.902344 C 91.503906 13.902344 13.902344 91.503906 13.902344 187.363281 C 13.902344 283.226562 91.503906 360.828125 187.363281 360.828125 C 283.226562 360.828125 360.828125 283.226562 360.828125 187.363281 C 360.828125 91.503906 282.65625 13.902344 187.363281 13.902344 Z M 187.363281 13.902344 " fill-opacity="1" fill-rule="nonzero"/></g><g clip-path="url(#c5a82de9b0)"><path fill="#397fbf" d="M 18.292969 130.710938 L 127.550781 313.664062 C 128.636719 315.484375 130.597656 316.597656 132.714844 316.597656 C 134.832031 316.597656 136.796875 315.484375 137.882812 313.664062 L 187.34375 230.835938 L 236.804688 313.664062 C 237.890625 315.484375 239.851562 316.597656 241.972656 316.597656 C 244.085938 316.597656 246.046875 315.484375 247.136719 313.664062 L 356.390625 130.710938 C 357.503906 128.847656 357.527344 126.53125 356.457031 124.644531 C 355.390625 122.757812 353.390625 121.59375 351.226562 121.59375 L 295.976562 121.59375 C 293.835938 121.59375 291.863281 122.726562 290.78125 124.570312 L 247.464844 198.5 C 245.785156 201.371094 246.746094 205.058594 249.613281 206.746094 C 252.480469 208.429688 256.167969 207.46875 257.847656 204.597656 L 299.421875 133.644531 L 340.613281 133.644531 L 241.972656 298.828125 L 194.355469 219.09375 L 247.136719 130.710938 C 248.25 128.847656 248.273438 126.53125 247.203125 124.644531 C 246.136719 122.757812 244.136719 121.59375 241.972656 121.59375 L 186.71875 121.59375 C 184.582031 121.59375 182.605469 122.726562 181.527344 124.570312 L 138.210938 198.5 C 136.53125 201.371094 137.492188 205.058594 140.355469 206.746094 C 143.226562 208.429688 146.914062 207.46875 148.59375 204.597656 L 190.167969 133.644531 L 231.359375 133.644531 L 182.191406 215.972656 C 182.179688 216 182.160156 216.027344 182.144531 216.054688 L 132.714844 298.828125 L 34.074219 133.644531 L 122.589844 133.644531 L 110.484375 155.925781 C 108.898438 158.847656 109.976562 162.507812 112.898438 164.097656 C 115.816406 165.6875 119.472656 164.605469 121.0625 161.683594 L 138.003906 130.5 C 139.015625 128.632812 138.976562 126.367188 137.890625 124.542969 C 136.804688 122.714844 134.839844 121.59375 132.714844 121.59375 L 23.460938 121.59375 C 21.292969 121.59375 19.292969 122.757812 18.226562 124.644531 C 17.15625 126.53125 17.183594 128.847656 18.292969 130.710938 " fill-opacity="1" fill-rule="nonzero"/></g></svg>