<svg xmlns="http://www.w3.org/2000/svg" xmlns:xlink="http://www.w3.org/1999/xlink" width="500" zoomAndPan="magnify" viewBox="0 0 375 374.999991" height="500" preserveAspectRatio="xMidYMid meet" version="1.0"><defs><clipPath id="05508f7cf0"><path d="M 33.492188 33.492188 L 341.742188 33.492188 L 341.742188 341.742188 L 33.492188 341.742188 Z M 33.492188 33.492188 " clip-rule="nonzero"/></clipPath><clipPath id="6524111d06"><path d="M 80 74.015625 L 295 74.015625 L 295 215 L 80 215 Z M 80 74.015625 " clip-rule="nonzero"/></clipPath><clipPath id="11515fe9ca"><path d="M 118 74.015625 L 259 74.015625 L 259 127 L 118 127 Z M 118 74.015625 " clip-rule="nonzero"/></clipPath><clipPath id="b143aec806"><path d="M 131 207 L 245 207 L 245 327.515625 L 131 327.515625 Z M 131 207 " clip-rule="nonzero"/></clipPath></defs><path fill="#00427f" d="M 353.527344 250.910156 C 348.609375 263.617188 271.445312 344.960938 259.03125 350.472656 C 246.617188 355.984375 135.476562 357.707031 122.785156 352.722656 C 110.09375 347.742188 29.988281 271.3125 24.515625 258.839844 C 19.042969 246.367188 17.917969 135.222656 22.84375 122.554688 C 27.773438 109.886719 103.53125 29.546875 116.011719 24.148438 C 128.496094 18.746094 239.566406 16.964844 252.257812 21.894531 C 264.949219 26.828125 344.609375 104.011719 350.117188 116.441406 C 355.628906 128.871094 358.441406 238.203125 353.527344 250.910156 Z M 353.527344 250.910156 " fill-opacity="1" fill-rule="nonzero"/><g clip-path="url(#05508f7cf0)"><path fill="#ffffff" d="M 338.355469 250.0625 L 250.058594 338.355469 L 125.179688 338.355469 L 36.878906 250.0625 L 36.878906 125.183594 L 125.179688 36.882812 L 250.058594 36.882812 L 338.355469 125.183594 Z M 251.460938 33.492188 L 123.777344 33.492188 L 33.492188 123.777344 L 33.492188 251.460938 L 123.777344 341.742188 L 251.460938 341.742188 L 341.742188 251.460938 L 341.742188 123.777344 L 251.460938 33.492188 " fill-opacity="1" fill-rule="nonzero"/></g><g clip-path="url(#6524111d06)"><path fill="#55acee" d="M 258.214844 74.035156 L 117.121094 74.035156 C 96.25 74.035156 74.792969 109.238281 81.847656 123.320312 C 93.21875 146.027344 166.503906 214.847656 166.503906 214.847656 L 208.832031 214.847656 C 208.832031 214.847656 279.378906 144.441406 293.488281 123.320312 C 300.542969 109.238281 277.027344 74.035156 258.214844 74.035156 Z M 229.996094 130.359375 L 187.667969 172.605469 L 145.339844 130.359375 C 141.585938 126.613281 139.390625 123.890625 139.03125 121.871094 C 138.035156 116.300781 151.417969 116.28125 187.667969 116.28125 C 236.457031 116.28125 240.40625 118.921875 233.746094 126.460938 C 232.710938 127.644531 231.425781 128.929688 229.996094 130.359375 Z M 229.996094 130.359375 " fill-opacity="1" fill-rule="nonzero"/></g><g clip-path="url(#11515fe9ca)"><path fill="#3b88c3" d="M 139.03125 121.871094 C 138.035156 116.300781 151.417969 116.28125 187.667969 116.28125 C 236.457031 116.28125 240.40625 118.921875 233.746094 126.460938 C 271.378906 87.308594 259.589844 74.035156 244.105469 74.035156 L 131.230469 74.035156 C 105.980469 74.035156 124.101562 102.882812 139.03125 121.871094 Z M 139.03125 121.871094 " fill-opacity="1" fill-rule="nonzero"/></g><g clip-path="url(#b143aec806)"><path fill="#3b88c3" d="M 215.195312 222.027344 C 215.617188 220.878906 215.886719 219.65625 215.886719 218.367188 C 215.886719 212.539062 211.144531 207.804688 205.304688 207.804688 L 170.03125 207.804688 C 164.179688 207.804688 159.449219 212.539062 159.449219 218.367188 C 159.449219 219.65625 159.714844 220.878906 160.140625 222.027344 C 142.898438 231.667969 131.230469 250.050781 131.230469 271.171875 C 131.230469 302.273438 156.492188 327.496094 187.667969 327.496094 C 218.832031 327.496094 244.105469 302.273438 244.105469 271.171875 C 244.105469 250.050781 232.433594 231.667969 215.195312 222.027344 Z M 215.195312 222.027344 " fill-opacity="1" fill-rule="nonzero"/></g><path fill="#c9ccb0" d="M 229.996094 271.171875 C 229.996094 272.554688 229.925781 273.933594 229.789062 275.3125 C 229.65625 276.6875 229.453125 278.054688 229.179688 279.410156 C 228.910156 280.769531 228.574219 282.109375 228.171875 283.433594 C 227.769531 284.757812 227.304688 286.058594 226.773438 287.335938 C 226.242188 288.613281 225.648438 289.863281 224.996094 291.082031 C 224.34375 292.304688 223.632812 293.488281 222.859375 294.640625 C 222.089844 295.789062 221.265625 296.898438 220.386719 297.96875 C 219.507812 299.039062 218.578125 300.0625 217.597656 301.039062 C 216.617188 302.019531 215.589844 302.945312 214.519531 303.824219 C 213.449219 304.703125 212.335938 305.527344 211.183594 306.292969 C 210.03125 307.0625 208.84375 307.773438 207.621094 308.425781 C 206.398438 309.078125 205.144531 309.667969 203.863281 310.199219 C 202.582031 310.726562 201.28125 311.191406 199.953125 311.59375 C 198.625 311.996094 197.285156 312.332031 195.925781 312.601562 C 194.5625 312.871094 193.195312 313.074219 191.816406 313.210938 C 190.433594 313.34375 189.050781 313.414062 187.667969 313.414062 C 186.28125 313.414062 184.898438 313.34375 183.515625 313.210938 C 182.136719 313.074219 180.769531 312.871094 179.410156 312.601562 C 178.046875 312.332031 176.707031 311.996094 175.378906 311.59375 C 174.050781 311.191406 172.75 310.726562 171.46875 310.199219 C 170.1875 309.667969 168.933594 309.078125 167.714844 308.425781 C 166.492188 307.773438 165.300781 307.0625 164.148438 306.292969 C 162.996094 305.527344 161.886719 304.703125 160.8125 303.824219 C 159.742188 302.945312 158.714844 302.019531 157.734375 301.039062 C 156.753906 300.0625 155.824219 299.039062 154.945312 297.96875 C 154.066406 296.898438 153.242188 295.789062 152.472656 294.640625 C 151.703125 293.488281 150.988281 292.304688 150.335938 291.082031 C 149.683594 289.863281 149.089844 288.613281 148.558594 287.335938 C 148.03125 286.058594 147.5625 284.757812 147.160156 283.433594 C 146.757812 282.109375 146.421875 280.769531 146.152344 279.410156 C 145.882812 278.054688 145.679688 276.6875 145.542969 275.3125 C 145.40625 273.933594 145.339844 272.554688 145.339844 271.171875 C 145.339844 269.785156 145.40625 268.40625 145.542969 267.03125 C 145.679688 265.652344 145.882812 264.285156 146.152344 262.929688 C 146.421875 261.574219 146.757812 260.230469 147.160156 258.90625 C 147.5625 257.585938 148.03125 256.28125 148.558594 255.003906 C 149.089844 253.726562 149.683594 252.476562 150.335938 251.257812 C 150.988281 250.039062 151.703125 248.851562 152.472656 247.703125 C 153.242188 246.550781 154.066406 245.441406 154.945312 244.371094 C 155.824219 243.300781 156.753906 242.277344 157.734375 241.300781 C 158.714844 240.320312 159.742188 239.394531 160.8125 238.515625 C 161.886719 237.636719 162.996094 236.816406 164.148438 236.046875 C 165.300781 235.277344 166.492188 234.566406 167.714844 233.914062 C 168.933594 233.261719 170.1875 232.671875 171.46875 232.144531 C 172.75 231.613281 174.050781 231.148438 175.378906 230.746094 C 176.707031 230.34375 178.046875 230.007812 179.410156 229.738281 C 180.769531 229.46875 182.136719 229.265625 183.515625 229.132812 C 184.898438 228.996094 186.28125 228.925781 187.667969 228.925781 C 189.050781 228.925781 190.433594 228.996094 191.816406 229.132812 C 193.195312 229.265625 194.5625 229.46875 195.925781 229.738281 C 197.285156 230.007812 198.625 230.34375 199.953125 230.746094 C 201.28125 231.148438 202.582031 231.613281 203.863281 232.144531 C 205.144531 232.671875 206.398438 233.261719 207.621094 233.914062 C 208.84375 234.566406 210.03125 235.277344 211.183594 236.046875 C 212.335938 236.816406 213.449219 237.636719 214.519531 238.515625 C 215.589844 239.394531 216.617188 240.320312 217.597656 241.300781 C 218.578125 242.277344 219.507812 243.300781 220.386719 244.371094 C 221.265625 245.441406 222.089844 246.550781 222.859375 247.703125 C 223.632812 248.851562 224.34375 250.039062 224.996094 251.257812 C 225.648438 252.476562 226.242188 253.726562 226.773438 255.003906 C 227.304688 256.28125 227.769531 257.585938 228.171875 258.90625 C 228.574219 260.230469 228.910156 261.574219 229.179688 262.929688 C 229.453125 264.285156 229.65625 265.652344 229.789062 267.03125 C 229.925781 268.40625 229.996094 269.785156 229.996094 271.171875 Z M 229.996094 271.171875 " fill-opacity="1" fill-rule="nonzero"/></svg>