<svg xmlns="http://www.w3.org/2000/svg" xmlns:xlink="http://www.w3.org/1999/xlink" width="500" zoomAndPan="magnify" viewBox="0 0 375 374.999991" height="500" preserveAspectRatio="xMidYMid meet" version="1.0"><defs><clipPath id="6e8275494c"><path d="M 33.492188 33.492188 L 341.742188 33.492188 L 341.742188 341.742188 L 33.492188 341.742188 Z M 33.492188 33.492188 " clip-rule="nonzero"/></clipPath><clipPath id="a2de5a028a"><path d="M 80 73.53125 L 295 73.53125 L 295 215 L 80 215 Z M 80 73.53125 " clip-rule="nonzero"/></clipPath><clipPath id="a86450387b"><path d="M 118 73.53125 L 259 73.53125 L 259 126 L 118 126 Z M 118 73.53125 " clip-rule="nonzero"/></clipPath><clipPath id="526cc022ec"><path d="M 131 207 L 245 207 L 245 327.03125 L 131 327.03125 Z M 131 207 " clip-rule="nonzero"/></clipPath></defs><path fill="#00427f" d="M 353.527344 250.910156 C 348.609375 263.617188 271.445312 344.960938 259.03125 350.472656 C 246.617188 355.984375 135.476562 357.707031 122.785156 352.722656 C 110.09375 347.742188 29.988281 271.3125 24.515625 258.839844 C 19.042969 246.367188 17.917969 135.222656 22.84375 122.554688 C 27.773438 109.886719 103.53125 29.546875 116.011719 24.148438 C 128.496094 18.746094 239.566406 16.964844 252.257812 21.894531 C 264.949219 26.828125 344.609375 104.011719 350.117188 116.441406 C 355.628906 128.871094 358.441406 238.199219 353.527344 250.910156 Z M 353.527344 250.910156 " fill-opacity="1" fill-rule="nonzero"/><g clip-path="url(#6e8275494c)"><path fill="#ffffff" d="M 338.355469 250.0625 L 250.058594 338.355469 L 125.179688 338.355469 L 36.878906 250.0625 L 36.878906 125.183594 L 125.179688 36.882812 L 250.058594 36.882812 L 338.355469 125.183594 Z M 251.460938 33.492188 L 123.777344 33.492188 L 33.492188 123.777344 L 33.492188 251.460938 L 123.777344 341.742188 L 251.460938 341.742188 L 341.742188 251.460938 L 341.742188 123.777344 L 251.460938 33.492188 " fill-opacity="1" fill-rule="nonzero"/></g><g clip-path="url(#a2de5a028a)"><path fill="#55acee" d="M 258.214844 73.550781 L 117.121094 73.550781 C 96.25 73.550781 74.792969 108.753906 81.847656 122.835938 C 93.21875 145.542969 166.503906 214.363281 166.503906 214.363281 L 208.832031 214.363281 C 208.832031 214.363281 279.378906 143.957031 293.488281 122.835938 C 300.542969 108.753906 277.027344 73.550781 258.214844 73.550781 Z M 229.996094 129.875 L 187.667969 172.117188 L 145.339844 129.875 C 141.585938 126.128906 139.390625 123.40625 139.03125 121.386719 C 138.035156 115.816406 151.417969 115.796875 187.667969 115.796875 C 236.457031 115.796875 240.40625 118.433594 233.746094 125.976562 C 232.710938 127.160156 231.425781 128.445312 229.996094 129.875 Z M 229.996094 129.875 " fill-opacity="1" fill-rule="nonzero"/></g><g clip-path="url(#a86450387b)"><path fill="#3b88c3" d="M 139.03125 121.386719 C 138.035156 115.816406 151.417969 115.796875 187.667969 115.796875 C 236.457031 115.796875 240.40625 118.433594 233.746094 125.976562 C 271.378906 86.824219 259.589844 73.550781 244.105469 73.550781 L 131.230469 73.550781 C 105.980469 73.550781 124.101562 102.398438 139.03125 121.386719 Z M 139.03125 121.386719 " fill-opacity="1" fill-rule="nonzero"/></g><g clip-path="url(#526cc022ec)"><path fill="#3b88c3" d="M 215.195312 221.542969 C 215.617188 220.394531 215.886719 219.171875 215.886719 217.882812 C 215.886719 212.050781 211.144531 207.320312 205.304688 207.320312 L 170.03125 207.320312 C 164.179688 207.320312 159.449219 212.050781 159.449219 217.882812 C 159.449219 219.171875 159.714844 220.394531 160.140625 221.542969 C 142.898438 231.179688 131.230469 249.5625 131.230469 270.6875 C 131.230469 301.789062 156.492188 327.007812 187.667969 327.007812 C 218.832031 327.007812 244.105469 301.789062 244.105469 270.6875 C 244.105469 249.5625 232.433594 231.179688 215.195312 221.542969 Z M 215.195312 221.542969 " fill-opacity="1" fill-rule="nonzero"/></g><path fill="#e2aa44" d="M 229.996094 270.6875 C 229.996094 272.070312 229.925781 273.449219 229.789062 274.828125 C 229.65625 276.203125 229.453125 277.570312 229.179688 278.925781 C 228.910156 280.285156 228.574219 281.625 228.171875 282.949219 C 227.769531 284.273438 227.304688 285.574219 226.773438 286.851562 C 226.242188 288.128906 225.648438 289.378906 224.996094 290.597656 C 224.34375 291.820312 223.632812 293.003906 222.859375 294.15625 C 222.089844 295.304688 221.265625 296.414062 220.386719 297.484375 C 219.507812 298.554688 218.578125 299.578125 217.597656 300.554688 C 216.617188 301.535156 215.589844 302.460938 214.519531 303.339844 C 213.449219 304.21875 212.335938 305.039062 211.183594 305.808594 C 210.03125 306.578125 208.84375 307.289062 207.621094 307.941406 C 206.398438 308.59375 205.144531 309.183594 203.863281 309.714844 C 202.582031 310.242188 201.28125 310.707031 199.953125 311.109375 C 198.625 311.511719 197.285156 311.847656 195.925781 312.117188 C 194.5625 312.386719 193.195312 312.589844 191.816406 312.726562 C 190.433594 312.859375 189.050781 312.929688 187.667969 312.929688 C 186.28125 312.929688 184.898438 312.859375 183.515625 312.726562 C 182.136719 312.589844 180.769531 312.386719 179.410156 312.117188 C 178.046875 311.847656 176.707031 311.511719 175.378906 311.109375 C 174.050781 310.707031 172.75 310.242188 171.46875 309.714844 C 170.1875 309.183594 168.933594 308.59375 167.714844 307.941406 C 166.492188 307.289062 165.300781 306.578125 164.148438 305.808594 C 162.996094 305.039062 161.886719 304.21875 160.8125 303.339844 C 159.742188 302.460938 158.714844 301.535156 157.734375 300.554688 C 156.753906 299.578125 155.824219 298.554688 154.945312 297.484375 C 154.066406 296.414062 153.242188 295.304688 152.472656 294.15625 C 151.703125 293.003906 150.988281 291.820312 150.335938 290.597656 C 149.683594 289.378906 149.089844 288.128906 148.558594 286.851562 C 148.03125 285.574219 147.5625 284.273438 147.160156 282.949219 C 146.757812 281.625 146.421875 280.285156 146.152344 278.925781 C 145.882812 277.570312 145.679688 276.203125 145.542969 274.828125 C 145.40625 273.449219 145.339844 272.070312 145.339844 270.6875 C 145.339844 269.300781 145.40625 267.921875 145.542969 266.546875 C 145.679688 265.167969 145.882812 263.800781 146.152344 262.445312 C 146.421875 261.085938 146.757812 259.746094 147.160156 258.421875 C 147.5625 257.097656 148.03125 255.796875 148.558594 254.519531 C 149.089844 253.242188 149.683594 251.992188 150.335938 250.773438 C 150.988281 249.550781 151.703125 248.367188 152.472656 247.21875 C 153.242188 246.066406 154.066406 244.957031 154.945312 243.886719 C 155.824219 242.816406 156.753906 241.792969 157.734375 240.816406 C 158.714844 239.835938 159.742188 238.910156 160.8125 238.03125 C 161.886719 237.152344 162.996094 236.332031 164.148438 235.5625 C 165.300781 234.792969 166.492188 234.082031 167.714844 233.429688 C 168.933594 232.777344 170.1875 232.1875 171.46875 231.660156 C 172.75 231.128906 174.050781 230.664062 175.378906 230.261719 C 176.707031 229.859375 178.046875 229.523438 179.410156 229.253906 C 180.769531 228.984375 182.136719 228.78125 183.515625 228.644531 C 184.898438 228.511719 186.28125 228.441406 187.667969 228.441406 C 189.050781 228.441406 190.433594 228.511719 191.816406 228.644531 C 193.195312 228.78125 194.5625 228.984375 195.925781 229.253906 C 197.285156 229.523438 198.625 229.859375 199.953125 230.261719 C 201.28125 230.664062 202.582031 231.128906 203.863281 231.660156 C 205.144531 232.1875 206.398438 232.777344 207.621094 233.429688 C 208.84375 234.082031 210.03125 234.792969 211.183594 235.5625 C 212.335938 236.332031 213.449219 237.152344 214.519531 238.03125 C 215.589844 238.910156 216.617188 239.835938 217.597656 240.816406 C 218.578125 241.792969 219.507812 242.816406 220.386719 243.886719 C 221.265625 244.957031 222.089844 246.066406 222.859375 247.21875 C 223.632812 248.367188 224.34375 249.550781 224.996094 250.773438 C 225.648438 251.992188 226.242188 253.242188 226.773438 254.519531 C 227.304688 255.796875 227.769531 257.097656 228.171875 258.421875 C 228.574219 259.746094 228.910156 261.085938 229.179688 262.445312 C 229.453125 263.800781 229.65625 265.167969 229.789062 266.546875 C 229.925781 267.921875 229.996094 269.300781 229.996094 270.6875 Z M 229.996094 270.6875 " fill-opacity="1" fill-rule="nonzero"/></svg>