<svg xmlns="http://www.w3.org/2000/svg" xmlns:xlink="http://www.w3.org/1999/xlink" width="500" zoomAndPan="magnify" viewBox="0 0 375 374.999991" height="500" preserveAspectRatio="xMidYMid meet" version="1.0"><defs><clipPath id="49b6e21a64"><path d="M 33.492188 33.492188 L 341.742188 33.492188 L 341.742188 341.742188 L 33.492188 341.742188 Z M 33.492188 33.492188 " clip-rule="nonzero"/></clipPath><clipPath id="7a06f271a1"><path d="M 80 73.210938 L 295 73.210938 L 295 215 L 80 215 Z M 80 73.210938 " clip-rule="nonzero"/></clipPath><clipPath id="66ac443f8d"><path d="M 118 73.210938 L 259 73.210938 L 259 126 L 118 126 Z M 118 73.210938 " clip-rule="nonzero"/></clipPath><clipPath id="79c9690008"><path d="M 131 207 L 245 207 L 245 326.710938 L 131 326.710938 Z M 131 207 " clip-rule="nonzero"/></clipPath></defs><path fill="#00427f" d="M 353.527344 250.910156 C 348.609375 263.617188 271.445312 344.960938 259.03125 350.472656 C 246.617188 355.984375 135.476562 357.707031 122.785156 352.722656 C 110.09375 347.742188 29.988281 271.3125 24.515625 258.839844 C 19.042969 246.367188 17.917969 135.222656 22.84375 122.554688 C 27.773438 109.886719 103.53125 29.546875 116.011719 24.148438 C 128.496094 18.746094 239.566406 16.964844 252.257812 21.894531 C 264.949219 26.828125 344.609375 104.011719 350.117188 116.441406 C 355.628906 128.871094 358.441406 238.203125 353.527344 250.910156 Z M 353.527344 250.910156 " fill-opacity="1" fill-rule="nonzero"/><g clip-path="url(#49b6e21a64)"><path fill="#ffffff" d="M 338.355469 250.0625 L 250.058594 338.355469 L 125.179688 338.355469 L 36.878906 250.0625 L 36.878906 125.183594 L 125.179688 36.882812 L 250.058594 36.882812 L 338.355469 125.183594 Z M 251.460938 33.492188 L 123.777344 33.492188 L 33.492188 123.777344 L 33.492188 251.460938 L 123.777344 341.742188 L 251.460938 341.742188 L 341.742188 251.460938 L 341.742188 123.777344 L 251.460938 33.492188 " fill-opacity="1" fill-rule="nonzero"/></g><g clip-path="url(#7a06f271a1)"><path fill="#55acee" d="M 258.214844 73.234375 L 117.121094 73.234375 C 96.25 73.234375 74.792969 108.4375 81.847656 122.515625 C 93.21875 145.222656 166.503906 214.042969 166.503906 214.042969 L 208.832031 214.042969 C 208.832031 214.042969 279.378906 143.640625 293.488281 122.515625 C 300.542969 108.4375 277.027344 73.234375 258.214844 73.234375 Z M 229.996094 129.558594 L 187.667969 171.800781 L 145.339844 129.558594 C 141.585938 125.8125 139.390625 123.085938 139.03125 121.066406 C 138.035156 115.496094 151.417969 115.476562 187.667969 115.476562 C 236.457031 115.476562 240.40625 118.117188 233.746094 125.65625 C 232.710938 126.839844 231.425781 128.128906 229.996094 129.558594 Z M 229.996094 129.558594 " fill-opacity="1" fill-rule="nonzero"/></g><g clip-path="url(#66ac443f8d)"><path fill="#3b88c3" d="M 139.03125 121.066406 C 138.035156 115.496094 151.417969 115.476562 187.667969 115.476562 C 236.457031 115.476562 240.40625 118.117188 233.746094 125.65625 C 271.378906 86.503906 259.589844 73.234375 244.105469 73.234375 L 131.230469 73.234375 C 105.980469 73.234375 124.101562 102.078125 139.03125 121.066406 Z M 139.03125 121.066406 " fill-opacity="1" fill-rule="nonzero"/></g><g clip-path="url(#79c9690008)"><path fill="#3b88c3" d="M 215.195312 221.226562 C 215.617188 220.078125 215.886719 218.851562 215.886719 217.5625 C 215.886719 211.734375 211.144531 207.003906 205.304688 207.003906 L 170.03125 207.003906 C 164.179688 207.003906 159.449219 211.734375 159.449219 217.5625 C 159.449219 218.851562 159.714844 220.078125 160.140625 221.226562 C 142.898438 230.863281 131.230469 249.246094 131.230469 270.367188 C 131.230469 301.472656 156.492188 326.691406 187.667969 326.691406 C 218.832031 326.691406 244.105469 301.472656 244.105469 270.367188 C 244.105469 249.246094 232.433594 230.863281 215.195312 221.226562 Z M 215.195312 221.226562 " fill-opacity="1" fill-rule="nonzero"/></g><path fill="#896728" d="M 229.996094 270.367188 C 229.996094 271.75 229.925781 273.132812 229.789062 274.507812 C 229.65625 275.886719 229.453125 277.25 229.179688 278.609375 C 228.910156 279.964844 228.574219 281.304688 228.171875 282.628906 C 227.769531 283.953125 227.304688 285.253906 226.773438 286.53125 C 226.242188 287.8125 225.648438 289.058594 224.996094 290.28125 C 224.34375 291.5 223.632812 292.6875 222.859375 293.835938 C 222.089844 294.988281 221.265625 296.097656 220.386719 297.167969 C 219.507812 298.234375 218.578125 299.257812 217.597656 300.238281 C 216.617188 301.214844 215.589844 302.144531 214.519531 303.023438 C 213.449219 303.898438 212.335938 304.722656 211.183594 305.492188 C 210.03125 306.261719 208.84375 306.96875 207.621094 307.621094 C 206.398438 308.273438 205.144531 308.867188 203.863281 309.394531 C 202.582031 309.925781 201.28125 310.390625 199.953125 310.792969 C 198.625 311.191406 197.285156 311.527344 195.925781 311.796875 C 194.5625 312.070312 193.195312 312.269531 191.816406 312.40625 C 190.433594 312.542969 189.050781 312.609375 187.667969 312.609375 C 186.28125 312.609375 184.898438 312.542969 183.515625 312.40625 C 182.136719 312.269531 180.769531 312.070312 179.410156 311.796875 C 178.046875 311.527344 176.707031 311.191406 175.378906 310.792969 C 174.050781 310.390625 172.75 309.925781 171.46875 309.394531 C 170.1875 308.867188 168.933594 308.273438 167.714844 307.621094 C 166.492188 306.96875 165.300781 306.261719 164.148438 305.492188 C 162.996094 304.722656 161.886719 303.898438 160.8125 303.023438 C 159.742188 302.144531 158.714844 301.214844 157.734375 300.238281 C 156.753906 299.257812 155.824219 298.234375 154.945312 297.167969 C 154.066406 296.097656 153.242188 294.988281 152.472656 293.835938 C 151.703125 292.6875 150.988281 291.5 150.335938 290.28125 C 149.683594 289.058594 149.089844 287.8125 148.558594 286.53125 C 148.03125 285.253906 147.5625 283.953125 147.160156 282.628906 C 146.757812 281.304688 146.421875 279.964844 146.152344 278.609375 C 145.882812 277.25 145.679688 275.886719 145.542969 274.507812 C 145.40625 273.132812 145.339844 271.75 145.339844 270.367188 C 145.339844 268.984375 145.40625 267.605469 145.542969 266.226562 C 145.679688 264.851562 145.882812 263.484375 146.152344 262.125 C 146.421875 260.769531 146.757812 259.429688 147.160156 258.105469 C 147.5625 256.78125 148.03125 255.480469 148.558594 254.203125 C 149.089844 252.921875 149.683594 251.675781 150.335938 250.453125 C 150.988281 249.234375 151.703125 248.050781 152.472656 246.898438 C 153.242188 245.75 154.066406 244.636719 154.945312 243.570312 C 155.824219 242.5 156.753906 241.476562 157.734375 240.496094 C 158.714844 239.519531 159.742188 238.589844 160.8125 237.714844 C 161.886719 236.835938 162.996094 236.011719 164.148438 235.242188 C 165.300781 234.476562 166.492188 233.765625 167.714844 233.113281 C 168.933594 232.460938 170.1875 231.871094 171.46875 231.339844 C 172.75 230.8125 174.050781 230.34375 175.378906 229.945312 C 176.707031 229.542969 178.046875 229.207031 179.410156 228.9375 C 180.769531 228.667969 182.136719 228.464844 183.515625 228.328125 C 184.898438 228.191406 186.28125 228.125 187.667969 228.125 C 189.050781 228.125 190.433594 228.191406 191.816406 228.328125 C 193.195312 228.464844 194.5625 228.667969 195.925781 228.9375 C 197.285156 229.207031 198.625 229.542969 199.953125 229.945312 C 201.28125 230.34375 202.582031 230.8125 203.863281 231.339844 C 205.144531 231.871094 206.398438 232.460938 207.621094 233.113281 C 208.84375 233.765625 210.03125 234.476562 211.183594 235.242188 C 212.335938 236.011719 213.449219 236.835938 214.519531 237.714844 C 215.589844 238.589844 216.617188 239.519531 217.597656 240.496094 C 218.578125 241.476562 219.507812 242.5 220.386719 243.570312 C 221.265625 244.636719 222.089844 245.75 222.859375 246.898438 C 223.632812 248.050781 224.34375 249.234375 224.996094 250.453125 C 225.648438 251.675781 226.242188 252.921875 226.773438 254.203125 C 227.304688 255.480469 227.769531 256.78125 228.171875 258.105469 C 228.574219 259.429688 228.910156 260.769531 229.179688 262.125 C 229.453125 263.484375 229.65625 264.851562 229.789062 266.226562 C 229.925781 267.605469 229.996094 268.984375 229.996094 270.367188 Z M 229.996094 270.367188 " fill-opacity="1" fill-rule="nonzero"/></svg>